<svg width="14" height="14" viewBox="0 0 14 14" fill="none" xmlns="http://www.w3.org/2000/svg">
<path d="M1.20514 6.94943C1.27247 6.58211 1.56867 6.20656 2.04667 5.8824C2.90734 5.29868 3.89032 5.30108 4.87422 5.26465C5.20076 5.25255 6.07754 5.24856 7.00014 5.25065C7.92274 5.24856 8.79955 5.25255 9.12604 5.26465C10.1099 5.30108 11.0929 5.29868 11.9536 5.8824C12.4316 6.20656 12.7278 6.58211 12.7952 6.94943C12.853 7.26472 12.844 8.34669 12.7774 9.11021C12.7422 9.51271 12.7064 9.70866 12.653 9.79102C12.4918 10.0395 12.0265 10.2484 11.342 10.3796C10.6996 10.5027 10.7951 10.5001 7.00014 10.5001C3.20513 10.5001 3.30065 10.5027 2.65829 10.3796C1.97379 10.2484 1.50848 10.0395 1.34729 9.79102C1.29388 9.70866 1.25809 9.51271 1.22293 9.11021C1.15624 8.34669 1.14733 7.26472 1.20514 6.94943Z" stroke="#6E6F76" stroke-width="0.875" stroke-linecap="round" stroke-linejoin="round"/>
<path d="M2.625 5.25012L3.39106 2.61935C3.46142 2.44434 3.59817 2.29817 3.7909 2.23263C5.68263 1.58929 8.31734 1.58929 10.2091 2.23263C10.4018 2.29817 10.5386 2.44434 10.609 2.61935L11.375 5.25012" stroke="#6E6F76" stroke-width="0.875" stroke-linecap="round" stroke-linejoin="round"/>
<path d="M1.45819 7.00024L2.33319 7.29191" stroke="#6E6F76" stroke-width="0.875" stroke-linecap="round" stroke-linejoin="round"/>
<path d="M12.5418 7.00024L11.6668 7.29191" stroke="#6E6F76" stroke-width="0.875" stroke-linecap="round" stroke-linejoin="round"/>
<path d="M4.66681 10.2083L4.81012 9.85005C5.02323 9.31729 5.12979 9.05088 5.352 8.90044C5.5742 8.75 5.86113 8.75 6.43495 8.75H7.56533C8.13916 8.75 8.4261 8.75 8.64829 8.90044C8.87048 9.05088 8.97706 9.31729 9.19015 9.85005L9.33348 10.2083" stroke="#6E6F76" stroke-width="0.875" stroke-linecap="round" stroke-linejoin="round"/>
<path d="M4.08427 10.828V11.2959C4.08431 11.806 4.06197 11.9015 3.90799 12.0504C3.86294 12.094 3.77136 12.1567 3.70453 12.1899C3.58749 12.2478 3.54824 12.25 2.64114 12.25C1.71367 12.25 1.69708 12.249 1.55416 12.1844C1.47431 12.1483 1.3736 12.0762 1.33034 12.0241C1.17763 11.8404 1.17037 11.7862 1.16895 10.8184L1.16934 8.75" stroke="#6E6F76" stroke-width="0.875" stroke-linecap="round"/>
<path d="M9.91602 10.828V11.2959C9.91596 11.806 9.9383 11.9015 10.0923 12.0504C10.1373 12.094 10.2289 12.1567 10.2958 12.1899C10.4128 12.2478 10.452 12.25 11.3591 12.25C12.2866 12.25 12.3032 12.249 12.4461 12.1844C12.526 12.1483 12.6267 12.0762 12.6699 12.0241C12.8226 11.8404 12.8299 11.7862 12.8313 10.8184L12.8309 8.75" stroke="#6E6F76" stroke-width="0.875" stroke-linecap="round"/>
<path d="M11.6668 5.25004L12.5418 4.95837" stroke="#6E6F76" stroke-width="0.875" stroke-linecap="round" stroke-linejoin="round"/>
<path d="M2.33319 5.25004L1.45819 4.95837" stroke="#6E6F76" stroke-width="0.875" stroke-linecap="round" stroke-linejoin="round"/>
</svg>
