<svg width="20" height="20" viewBox="0 0 20 20" fill="none" xmlns="http://www.w3.org/2000/svg">
<path d="M4.16669 11.9053C2.62389 12.5859 1.66669 13.5343 1.66669 14.5833C1.66669 16.6544 5.39765 18.3333 10 18.3333C14.6024 18.3333 18.3334 16.6544 18.3334 14.5833C18.3334 13.5343 17.3762 12.5859 15.8334 11.9053M15 6.66663C15 10.053 11.25 11.6666 10 14.1666C8.75002 11.6666 5.00002 10.053 5.00002 6.66663C5.00002 3.9052 7.2386 1.66663 10 1.66663C12.7614 1.66663 15 3.9052 15 6.66663ZM10.8334 6.66663C10.8334 7.12686 10.4603 7.49996 10 7.49996C9.53978 7.49996 9.16669 7.12686 9.16669 6.66663C9.16669 6.20639 9.53978 5.83329 10 5.83329C10.4603 5.83329 10.8334 6.20639 10.8334 6.66663Z" stroke="#FBEBCD" stroke-width="1.66667" stroke-linecap="round" stroke-linejoin="round"/>
</svg>
