<svg width="40" height="40" viewBox="0 0 40 40" fill="none" xmlns="http://www.w3.org/2000/svg">
<rect x="0.5" y="0.5" width="39" height="39" rx="19.5" stroke="#5E2E3E" stroke-opacity="0.1"/>
<path d="M15.75 20C15.75 20.9665 14.9665 21.75 14 21.75C13.0335 21.75 12.25 20.9665 12.25 20C12.25 19.0335 13.0335 18.25 14 18.25C14.9665 18.25 15.75 19.0335 15.75 20ZM21.75 20C21.75 20.9665 20.9665 21.75 20 21.75C19.0335 21.75 18.25 20.9665 18.25 20C18.25 19.0335 19.0335 18.25 20 18.25C20.9665 18.25 21.75 19.0335 21.75 20ZM26 21.75C26.9665 21.75 27.75 20.9665 27.75 20C27.75 19.0335 26.9665 18.25 26 18.25C25.0335 18.25 24.25 19.0335 24.25 20C24.25 20.9665 25.0335 21.75 26 21.75Z" fill="#32343E"/>
</svg>
