<svg width="20" height="20" viewBox="0 0 20 20" fill="none" xmlns="http://www.w3.org/2000/svg">
<g clip-path="url(#clip0_33_45)">
<path d="M16.0833 11.6671V11.4171H15.8333H15C14.2214 11.4171 13.5833 10.779 13.5833 10.0004V5.00039C13.5833 4.46406 13.8756 3.83071 14.4068 3.2678C14.9339 2.70923 15.6752 2.24387 16.5253 2.03507C16.8932 1.948 17.25 2.22902 17.25 2.60872V17.5004C17.25 17.8206 16.9869 18.0837 16.6667 18.0837C16.3464 18.0837 16.0833 17.8206 16.0833 17.5004V11.6671ZM9.16667 7.75039H9.41667V7.50039V2.50039C9.41667 2.18012 9.67974 1.91705 10 1.91705C10.3203 1.91705 10.5833 2.18012 10.5833 2.50039V7.50039C10.5833 9.20398 9.2036 10.5837 7.5 10.5837H7.25V10.8337V17.5004C7.25 17.8206 6.98693 18.0837 6.66667 18.0837C6.3464 18.0837 6.08333 17.8206 6.08333 17.5004V10.8337V10.5837H5.83333C4.12974 10.5837 2.75 9.20398 2.75 7.50039V2.50039C2.75 2.18012 3.01307 1.91705 3.33333 1.91705C3.6536 1.91705 3.91667 2.18012 3.91667 2.50039V7.50039V7.75039H4.16667H5.83333H6.08333V7.50039V2.50039C6.08333 2.18012 6.3464 1.91705 6.66667 1.91705C6.98693 1.91705 7.25 2.18012 7.25 2.50039V7.50039V7.75039H7.5H9.16667Z" stroke="#32343E" stroke-width="0.5"/>
</g>
<defs>
<clipPath id="clip0_33_45">
<rect width="20" height="20" fill="white"/>
</clipPath>
</defs>
</svg>
