<svg width="14" height="18" viewBox="0 0 14 18" fill="none" xmlns="http://www.w3.org/2000/svg">
<g clip-path="url(#clip0_33_106)">
<path d="M6.86427 11.3904C6.70769 11.2736 6.82448 10.8424 6.86427 9.99406C6.89122 9.46786 6.8925 9.38187 6.8848 8.85181C6.89064 8.58499 6.87606 8.31812 6.84117 8.05353C6.81509 7.88863 6.72577 7.74039 6.59218 7.64027C6.20716 7.38358 5.49742 7.32454 4.99689 6.84711C4.54924 6.4858 4.22827 5.99132 4.08052 5.43534C4.03848 5.24674 4.00932 5.0555 3.99325 4.86294C3.98345 4.70437 3.98345 4.54535 3.99325 4.38679C4.00352 4.1301 4.03047 4.06979 4.06769 4.02872C4.18192 3.90037 4.40523 3.93374 4.48865 3.92347C6.3355 3.70144 8.01293 4.50614 9.79561 4.66657C9.84833 4.67251 9.89666 4.69875 9.93037 4.73973C9.95218 4.76925 9.93037 4.83214 9.93037 4.85396C9.91453 5.0352 9.88709 5.21525 9.84822 5.39299C9.81078 5.55655 9.7597 5.71668 9.6955 5.87171C9.59872 6.09831 9.46897 6.30936 9.31047 6.49802C9.15358 6.68292 8.97274 6.84606 8.77272 6.98315C8.67627 7.05051 8.57599 7.11222 8.47239 7.16796L8.44673 7.1808C8.32214 7.24582 8.19354 7.30284 8.0617 7.3515C7.70876 7.47984 7.65743 7.43107 7.3648 7.6223C7.29303 7.67152 7.23232 7.73518 7.18657 7.80922C7.14082 7.88326 7.11104 7.96603 7.09914 8.05224C7.08373 8.13695 7.07218 8.7915 7.07218 8.85053C7.07218 8.90957 7.07218 9.03791 7.07218 9.07641C7.07218 9.20475 7.07218 9.47171 7.07218 9.48198C7.07218 9.54101 7.07218 9.867 7.16715 10.8937C7.1864 11.1081 7.20822 11.3186 7.0863 11.3879C7.0531 11.4087 7.01481 11.4199 6.97564 11.4204C6.93647 11.4208 6.89793 11.4105 6.86427 11.3904Z" fill="#32343E"/>
<path d="M6.96983 12.4811C6.9851 12.4777 6.99943 12.471 7.01184 12.4615C7.02425 12.4519 7.03444 12.4398 7.0417 12.426C7.06377 12.3895 7.08185 12.3508 7.0956 12.3104C7.10646 12.281 7.11378 12.2505 7.11742 12.2193C7.11742 12.2193 7.11742 12.2116 7.11742 12.2065C7.12011 12.1742 7.1139 12.1418 7.09945 12.1128C7.08608 12.0864 7.06564 12.0642 7.04041 12.0486C7.01207 12.0323 6.97909 12.026 6.94673 12.0307C6.91217 12.0356 6.8804 12.0524 6.85689 12.0781C6.83678 12.1016 6.82307 12.1299 6.8171 12.1603C6.81743 12.1633 6.81743 12.1663 6.8171 12.1693C6.81396 12.2123 6.81742 12.2556 6.82736 12.2976C6.83728 12.3408 6.85609 12.3814 6.88256 12.417C6.90309 12.4478 6.93389 12.4876 6.96983 12.4811Z" fill="#32343E"/>
<path d="M6.97014 13.4897C6.9854 13.4863 6.99974 13.4795 7.01215 13.47C7.02456 13.4605 7.03475 13.4484 7.04201 13.4345C7.06408 13.3981 7.08215 13.3593 7.09591 13.319C7.10677 13.2896 7.11409 13.259 7.11773 13.2279C7.11773 13.2279 7.11773 13.2202 7.11773 13.215C7.12042 13.1827 7.11421 13.1503 7.09976 13.1213C7.08639 13.0949 7.06595 13.0727 7.04072 13.0572C7.01238 13.0409 6.9794 13.0346 6.94704 13.0392C6.91248 13.0441 6.88071 13.0609 6.8572 13.0867C6.83667 13.1099 6.82291 13.1383 6.81741 13.1688C6.81774 13.1718 6.81774 13.1748 6.81741 13.1778C6.81404 13.2209 6.8175 13.2642 6.82767 13.3062C6.83732 13.3498 6.85613 13.3909 6.88287 13.4268C6.9034 13.4563 6.9342 13.4961 6.97014 13.4897Z" fill="#32343E"/>
<path d="M6.97014 14.499C6.98528 14.4952 6.99948 14.4884 7.01185 14.4789C7.02422 14.4694 7.03449 14.4574 7.04201 14.4438C7.06408 14.4073 7.08215 14.3686 7.09591 14.3283C7.10677 14.2989 7.11409 14.2683 7.11773 14.2371C7.11773 14.2371 7.11773 14.2294 7.11773 14.2243C7.12042 14.192 7.11421 14.1596 7.09976 14.1306C7.08639 14.1042 7.06595 14.082 7.04072 14.0664C7.01238 14.0502 6.9794 14.0438 6.94704 14.0485C6.91248 14.0534 6.88071 14.0702 6.8572 14.096C6.83693 14.1189 6.82319 14.1468 6.81741 14.1768C6.81784 14.1802 6.81784 14.1837 6.81741 14.1871C6.81404 14.2301 6.8175 14.2735 6.82767 14.3154C6.83732 14.3591 6.85613 14.4002 6.88287 14.4361C6.9034 14.4707 6.9342 14.5041 6.97014 14.499Z" fill="#32343E"/>
<path d="M9.24517 12.3144L9.12453 12.1861C9.04496 12.1014 8.96282 12.0141 8.87554 11.9294C7.90784 10.9951 7.46378 10.0646 7.48175 8.99933C7.48017 8.79628 7.49346 8.59339 7.52153 8.39228V8.37944C7.52655 8.26953 7.55224 8.16155 7.59726 8.06115L7.61266 8.02907C7.62036 8.01585 7.63035 8.00411 7.64218 7.99441C7.6493 7.98748 7.65817 7.9826 7.66785 7.9803L7.71405 7.96875C8.44706 7.81716 9.1203 7.45602 9.65201 6.92917C10.3746 6.18479 10.4747 5.31591 10.5235 4.89752C10.6364 3.90415 10.381 2.99548 9.72261 1.20639C9.5686 0.785428 9.44025 0.458157 9.33758 0.233558L9.3055 0.157837H4.63897L4.60688 0.233558C4.47854 0.531312 4.3502 0.856017 4.23598 1.17431C3.57245 2.99163 3.27854 3.97987 3.44538 5.18244C3.55791 5.95076 3.94612 6.65191 4.53758 7.15506C4.93287 7.49516 5.48859 7.76853 6.19063 7.96746L6.21886 7.97516C6.25131 7.98512 6.28173 8.00076 6.3087 8.02137C6.33073 8.03916 6.34868 8.06149 6.36132 8.08682V8.09452C6.38526 8.13769 6.4001 8.18529 6.40496 8.23441L6.42549 8.34608C6.45963 8.56249 6.47338 8.78163 6.46657 9.00062C6.48453 10.044 6.02378 11.004 5.0548 11.9371C4.96753 12.0218 4.88539 12.1091 4.80582 12.1938L4.68517 12.3221C4.22335 12.7907 3.87249 13.3569 3.65844 13.979C3.41715 14.7003 3.40175 15.4087 3.3902 16.2609C3.3902 16.6601 3.57245 16.9168 3.97031 17.0682L4.01009 17.0836C4.12548 17.1324 4.24328 17.1752 4.36303 17.212C5.20207 17.427 6.06378 17.5412 6.92988 17.5521H7.00047C7.86658 17.5415 8.72832 17.4273 9.56731 17.212C9.68755 17.1754 9.80579 17.1326 9.92154 17.0836L9.96132 17.0682C10.3592 16.9168 10.5427 16.6601 10.5414 16.2609C10.5414 15.4087 10.5132 14.7003 10.2732 13.979C10.0598 13.354 9.70844 12.7851 9.24517 12.3144ZM9.85865 16.8423L9.81758 16.8577C9.71146 16.9008 9.60306 16.9381 9.49287 16.9694C8.66831 17.1792 7.82174 17.2904 6.97095 17.3005C6.12016 17.2904 5.27358 17.1792 4.44902 16.9694C4.33841 16.9381 4.22959 16.9008 4.12303 16.8577L4.08325 16.8423C3.78293 16.7268 3.661 16.5574 3.66228 16.2545C3.66228 15.4229 3.68923 14.7311 3.91897 14.0406C4.12107 13.4515 4.45261 12.9151 4.88923 12.471L5.01758 12.3426C5.09458 12.2592 5.17544 12.1745 5.25758 12.0949C6.26891 11.1183 6.75405 10.1082 6.73865 9.00703C6.74673 8.77041 6.73168 8.53356 6.69373 8.29987C6.68474 8.2511 6.67961 8.21645 6.67448 8.19078C6.6667 8.1214 6.64533 8.05425 6.61158 7.99313V7.98415C6.58434 7.92855 6.54538 7.87951 6.49737 7.84041C6.44303 7.7967 6.38069 7.764 6.31384 7.74415L6.28303 7.73388C5.61822 7.5465 5.09587 7.29109 4.73009 6.97537C4.18442 6.50669 3.82509 5.85772 3.71747 5.1465C3.55576 3.99142 3.84581 3.02629 4.49651 1.2449C4.60175 0.957409 4.71598 0.663505 4.8302 0.390136H9.15277C9.24389 0.607035 9.35811 0.903506 9.49544 1.27698C10.1372 3.03142 10.3938 3.91827 10.2835 4.87056C10.2373 5.26458 10.1436 6.0834 9.47491 6.77003C8.97928 7.2612 8.35138 7.59744 7.66785 7.73773L7.62036 7.74928C7.57338 7.76029 7.5295 7.78178 7.49202 7.81217C7.44988 7.84733 7.41575 7.89108 7.39191 7.94051L7.37779 7.97388C7.32321 8.09223 7.29143 8.2198 7.2841 8.34992V8.36275C7.25418 8.57532 7.24002 8.78981 7.24175 9.00446V9.01859C7.22635 10.1313 7.70506 11.1426 8.70613 12.1091C8.78827 12.1886 8.86913 12.2733 8.94742 12.3568L9.07576 12.4851C9.51283 12.9289 9.84444 13.4654 10.046 14.0547C10.277 14.7452 10.3027 15.437 10.3027 16.2686C10.2809 16.5574 10.159 16.7268 9.85865 16.8423Z" fill="#32343E"/>
<path d="M7.12863 17.1146C7.00029 17.1146 6.87965 17.1223 6.75516 17.1146C5.71687 17.0761 4.91473 16.9567 4.3051 16.6526C4.03687 16.5088 3.86746 16.3291 3.87131 16.0352C3.86274 15.7318 3.8696 15.428 3.89185 15.1253C3.93677 14.7711 4.02019 14.7172 4.40521 14.8262C4.83516 14.9469 5.25997 15.0829 5.68864 15.1856C6.16509 15.2976 6.66409 15.2655 7.12222 15.0932C7.93719 14.8096 8.83815 14.5336 9.71216 14.6735C9.95473 14.712 10.033 14.9495 10.0613 15.1638C10.0613 15.2164 10.069 15.3024 10.0792 15.355C10.1408 16.2624 10.1139 16.6603 9.16414 16.8553C8.38253 17.0132 8.13484 17.094 7.12863 17.1146Z" fill="#32343E"/>
</g>
<defs>
<clipPath id="clip0_33_106">
<rect width="12.7059" height="18" fill="white" transform="translate(0.647034)"/>
</clipPath>
</defs>
</svg>
