<svg width="14" height="14" viewBox="0 0 14 14" fill="none" xmlns="http://www.w3.org/2000/svg">
<path d="M9.18608 1.1665C11.4383 1.1665 12.8337 2.56242 12.8337 4.81584V9.19084C12.8337 11.4378 11.4383 12.8332 9.18608 12.8332H4.80933C2.56233 12.8332 1.16699 11.4378 1.16758 9.18909C1.16758 8.94292 1.36708 8.74284 1.61383 8.74284C1.86058 8.74284 2.06008 8.94292 2.06008 9.18909C2.06008 10.9589 3.03483 11.9389 4.81516 11.9389H9.18608C10.9612 11.9389 11.9412 10.9642 11.9412 9.18909V4.81409C11.9412 3.039 10.967 2.059 9.18608 2.059H4.81458C3.03949 2.059 2.05949 3.039 2.05949 4.81409V6.17384C2.05949 6.41767 1.86233 6.61484 1.61849 6.61484H1.61208C1.36591 6.61484 1.16641 6.41475 1.16699 6.16859V4.81409C1.16699 2.56242 2.57283 1.1665 4.81516 1.1665H9.18608ZM7.00044 4.01539C7.24194 4.01539 7.43794 4.21139 7.43794 4.45289V6.7483L9.20311 7.80064C9.41019 7.92489 9.47844 8.19322 9.35478 8.40089C9.27311 8.53797 9.12728 8.61439 8.97853 8.61439C8.90211 8.61439 8.82511 8.59455 8.75453 8.55255L6.77644 7.37247C6.64403 7.29314 6.56294 7.15022 6.56294 6.99622V4.45289C6.56294 4.21139 6.75894 4.01539 7.00044 4.01539Z" fill="#919191"/>
</svg>
